# xmcd
#
# Track frame offsets:
#	150
#	17407
#	31970
#	51658
#
# Disc length: 954 seconds
#
# Revision: 0
# Processed by: cddbd v1.5.1PL2 Copyright (c) Steve Scherf et al.
# Submitted via: EasyCDDAExtractor 4.6.9.1
#
DISCID=2b03b804
DTITLE=Wynonna Judd - New Day Dawning - CD 2 - Big Bang Boogie
DYEAR=2000
DGENRE=Country
TTITLE0=Stuck In Love (The Judds)
TTITLE1=Big Bang Boogie (The Judds)
TTITLE2=That's What Makes You Strong (The Judds)
TTITLE3=The 90's Was The 60's Turned Upside Down (The Judds)
EXTD=YEAR: 2000 ID3G:   2\n
EXTT0=
EXTT1=
EXTT2=
EXTT3=
PLAYORDER=
